<mxfile host="app.diagrams.net" modified="2023-09-26T17:07:08.647Z" agent="Mozilla/5.0 (Windows NT 10.0; Win64; x64; rv:109.0) Gecko/20100101 Firefox/117.0" etag="fpscxGjUpxF1xExe6QaK" version="21.8.0" type="github">
  <diagram name="Page-1" id="mn38L_nQ_8ti4QkLpz30">
    <mxGraphModel dx="989" dy="546" grid="0" gridSize="10" guides="1" tooltips="1" connect="1" arrows="1" fold="1" page="1" pageScale="1" pageWidth="1169" pageHeight="827" background="none" math="0" shadow="0">
      <root>
        <mxCell id="0" />
        <mxCell id="1" parent="0" />
        <mxCell id="px1vQeHrWrPfUoPx776i-1" value="ROMVESEN" style="whiteSpace=wrap;html=1;align=center;" vertex="1" parent="1">
          <mxGeometry x="751" y="373" width="100" height="40" as="geometry" />
        </mxCell>
        <mxCell id="px1vQeHrWrPfUoPx776i-4" value="Navn" style="ellipse;whiteSpace=wrap;html=1;align=center;fontStyle=4;" vertex="1" parent="1">
          <mxGeometry x="814" y="306" width="100" height="40" as="geometry" />
        </mxCell>
        <mxCell id="px1vQeHrWrPfUoPx776i-9" value="" style="endArrow=none;html=1;rounded=0;" edge="1" parent="1" source="px1vQeHrWrPfUoPx776i-1" target="px1vQeHrWrPfUoPx776i-11">
          <mxGeometry relative="1" as="geometry">
            <mxPoint x="960" y="437" as="sourcePoint" />
            <mxPoint x="747.1843324292076" y="344.29794622087036" as="targetPoint" />
          </mxGeometry>
        </mxCell>
        <mxCell id="px1vQeHrWrPfUoPx776i-10" value="" style="endArrow=none;html=1;rounded=0;" edge="1" parent="1" source="px1vQeHrWrPfUoPx776i-1" target="px1vQeHrWrPfUoPx776i-4">
          <mxGeometry relative="1" as="geometry">
            <mxPoint x="960" y="437" as="sourcePoint" />
            <mxPoint x="1120" y="437" as="targetPoint" />
          </mxGeometry>
        </mxCell>
        <mxCell id="px1vQeHrWrPfUoPx776i-11" value="Lyd" style="ellipse;whiteSpace=wrap;html=1;align=center;fontStyle=4;" vertex="1" parent="1">
          <mxGeometry x="699" y="306" width="100" height="40" as="geometry" />
        </mxCell>
        <mxCell id="px1vQeHrWrPfUoPx776i-12" value="" style="endArrow=none;html=1;rounded=0;" edge="1" parent="1" source="px1vQeHrWrPfUoPx776i-11" target="px1vQeHrWrPfUoPx776i-14">
          <mxGeometry relative="1" as="geometry">
            <mxPoint x="821" y="233" as="sourcePoint" />
            <mxPoint x="796" y="205" as="targetPoint" />
          </mxGeometry>
        </mxCell>
        <mxCell id="px1vQeHrWrPfUoPx776i-13" value="" style="endArrow=none;html=1;rounded=0;" edge="1" parent="1" source="px1vQeHrWrPfUoPx776i-11" target="px1vQeHrWrPfUoPx776i-15">
          <mxGeometry relative="1" as="geometry">
            <mxPoint x="917" y="224" as="sourcePoint" />
            <mxPoint x="892" y="196" as="targetPoint" />
          </mxGeometry>
        </mxCell>
        <mxCell id="px1vQeHrWrPfUoPx776i-14" value="Start" style="ellipse;whiteSpace=wrap;html=1;align=center;" vertex="1" parent="1">
          <mxGeometry x="621" y="224" width="100" height="40" as="geometry" />
        </mxCell>
        <mxCell id="px1vQeHrWrPfUoPx776i-15" value="Gurgle" style="ellipse;whiteSpace=wrap;html=1;align=center;" vertex="1" parent="1">
          <mxGeometry x="727" y="224" width="100" height="40" as="geometry" />
        </mxCell>
        <mxCell id="px1vQeHrWrPfUoPx776i-16" value="GRUPPER" style="whiteSpace=wrap;html=1;align=center;" vertex="1" parent="1">
          <mxGeometry x="410" y="373" width="100" height="40" as="geometry" />
        </mxCell>
        <mxCell id="px1vQeHrWrPfUoPx776i-17" value="ID" style="ellipse;whiteSpace=wrap;html=1;align=center;fontStyle=4;" vertex="1" parent="1">
          <mxGeometry x="366" y="302" width="100" height="40" as="geometry" />
        </mxCell>
        <mxCell id="px1vQeHrWrPfUoPx776i-18" value="" style="endArrow=none;html=1;rounded=0;" edge="1" parent="1" source="px1vQeHrWrPfUoPx776i-16" target="px1vQeHrWrPfUoPx776i-17">
          <mxGeometry relative="1" as="geometry">
            <mxPoint x="236" y="383" as="sourcePoint" />
            <mxPoint x="270" y="354" as="targetPoint" />
          </mxGeometry>
        </mxCell>
        <mxCell id="px1vQeHrWrPfUoPx776i-20" value="Symbol" style="ellipse;whiteSpace=wrap;html=1;align=center;" vertex="1" parent="1">
          <mxGeometry x="474" y="302" width="100" height="40" as="geometry" />
        </mxCell>
        <mxCell id="px1vQeHrWrPfUoPx776i-21" value="" style="endArrow=none;html=1;rounded=0;" edge="1" parent="1" source="px1vQeHrWrPfUoPx776i-16" target="px1vQeHrWrPfUoPx776i-20">
          <mxGeometry relative="1" as="geometry">
            <mxPoint x="461" y="383" as="sourcePoint" />
            <mxPoint x="446" y="352" as="targetPoint" />
          </mxGeometry>
        </mxCell>
        <mxCell id="px1vQeHrWrPfUoPx776i-24" value="LEDER" style="shape=rhombus;perimeter=rhombusPerimeter;whiteSpace=wrap;html=1;align=center;" vertex="1" parent="1">
          <mxGeometry x="566" y="466" width="120" height="60" as="geometry" />
        </mxCell>
        <mxCell id="px1vQeHrWrPfUoPx776i-26" value="ROMSKIP" style="whiteSpace=wrap;html=1;align=center;" vertex="1" parent="1">
          <mxGeometry x="86" y="375" width="100" height="40" as="geometry" />
        </mxCell>
        <mxCell id="px1vQeHrWrPfUoPx776i-29" value="Kapasitet" style="ellipse;whiteSpace=wrap;html=1;align=center;" vertex="1" parent="1">
          <mxGeometry x="154" y="302" width="100" height="40" as="geometry" />
        </mxCell>
        <mxCell id="px1vQeHrWrPfUoPx776i-31" value="" style="endArrow=none;html=1;rounded=0;" edge="1" parent="1" source="px1vQeHrWrPfUoPx776i-26" target="px1vQeHrWrPfUoPx776i-29">
          <mxGeometry relative="1" as="geometry">
            <mxPoint x="337" y="310" as="sourcePoint" />
            <mxPoint x="292" y="277" as="targetPoint" />
          </mxGeometry>
        </mxCell>
        <mxCell id="px1vQeHrWrPfUoPx776i-32" value="" style="endArrow=none;html=1;rounded=0;" edge="1" parent="1" source="px1vQeHrWrPfUoPx776i-26" target="px1vQeHrWrPfUoPx776i-34">
          <mxGeometry relative="1" as="geometry">
            <mxPoint x="166" y="385" as="sourcePoint" />
            <mxPoint x="95.94050974322022" y="341.20692453510355" as="targetPoint" />
          </mxGeometry>
        </mxCell>
        <mxCell id="px1vQeHrWrPfUoPx776i-33" value="FUNKSJON" style="whiteSpace=wrap;html=1;align=center;" vertex="1" parent="1">
          <mxGeometry x="256" y="236" width="100" height="40" as="geometry" />
        </mxCell>
        <mxCell id="px1vQeHrWrPfUoPx776i-34" value="Serienummer" style="ellipse;whiteSpace=wrap;html=1;align=center;fontStyle=4;" vertex="1" parent="1">
          <mxGeometry x="40" y="302" width="100" height="40" as="geometry" />
        </mxCell>
        <mxCell id="px1vQeHrWrPfUoPx776i-37" value="ORGANISERT_I" style="shape=rhombus;perimeter=rhombusPerimeter;whiteSpace=wrap;html=1;align=center;" vertex="1" parent="1">
          <mxGeometry x="566" y="363" width="120" height="60" as="geometry" />
        </mxCell>
        <mxCell id="px1vQeHrWrPfUoPx776i-44" value="" style="shape=link;html=1;rounded=0;" edge="1" parent="1" source="px1vQeHrWrPfUoPx776i-16" target="px1vQeHrWrPfUoPx776i-37">
          <mxGeometry relative="1" as="geometry">
            <mxPoint x="463" y="394" as="sourcePoint" />
            <mxPoint x="570" y="400" as="targetPoint" />
          </mxGeometry>
        </mxCell>
        <mxCell id="px1vQeHrWrPfUoPx776i-45" value="1" style="resizable=0;html=1;whiteSpace=wrap;align=right;verticalAlign=bottom;" connectable="0" vertex="1" parent="px1vQeHrWrPfUoPx776i-44">
          <mxGeometry x="1" relative="1" as="geometry" />
        </mxCell>
        <mxCell id="px1vQeHrWrPfUoPx776i-49" value="" style="endArrow=none;html=1;rounded=0;" edge="1" parent="1" source="px1vQeHrWrPfUoPx776i-37" target="px1vQeHrWrPfUoPx776i-1">
          <mxGeometry relative="1" as="geometry">
            <mxPoint x="432" y="412" as="sourcePoint" />
            <mxPoint x="592" y="412" as="targetPoint" />
          </mxGeometry>
        </mxCell>
        <mxCell id="px1vQeHrWrPfUoPx776i-50" value="N" style="resizable=0;html=1;whiteSpace=wrap;align=right;verticalAlign=bottom;" connectable="0" vertex="1" parent="px1vQeHrWrPfUoPx776i-49">
          <mxGeometry x="1" relative="1" as="geometry">
            <mxPoint x="-54" as="offset" />
          </mxGeometry>
        </mxCell>
        <mxCell id="px1vQeHrWrPfUoPx776i-51" value="" style="shape=link;html=1;rounded=0;" edge="1" parent="1" source="px1vQeHrWrPfUoPx776i-24" target="px1vQeHrWrPfUoPx776i-1">
          <mxGeometry relative="1" as="geometry">
            <mxPoint x="432" y="412" as="sourcePoint" />
            <mxPoint x="779" y="356" as="targetPoint" />
          </mxGeometry>
        </mxCell>
        <mxCell id="px1vQeHrWrPfUoPx776i-52" value="1" style="resizable=0;html=1;whiteSpace=wrap;align=right;verticalAlign=bottom;" connectable="0" vertex="1" parent="px1vQeHrWrPfUoPx776i-51">
          <mxGeometry x="1" relative="1" as="geometry">
            <mxPoint x="-105" y="63" as="offset" />
          </mxGeometry>
        </mxCell>
        <mxCell id="px1vQeHrWrPfUoPx776i-53" value="" style="endArrow=none;html=1;rounded=0;" edge="1" parent="1" source="px1vQeHrWrPfUoPx776i-16" target="px1vQeHrWrPfUoPx776i-24">
          <mxGeometry relative="1" as="geometry">
            <mxPoint x="432" y="412" as="sourcePoint" />
            <mxPoint x="592" y="412" as="targetPoint" />
          </mxGeometry>
        </mxCell>
        <mxCell id="px1vQeHrWrPfUoPx776i-54" value="1" style="resizable=0;html=1;whiteSpace=wrap;align=right;verticalAlign=bottom;" connectable="0" vertex="1" parent="px1vQeHrWrPfUoPx776i-53">
          <mxGeometry x="1" relative="1" as="geometry" />
        </mxCell>
        <mxCell id="px1vQeHrWrPfUoPx776i-56" value="" style="endArrow=none;html=1;rounded=0;" edge="1" parent="1" source="px1vQeHrWrPfUoPx776i-57" target="px1vQeHrWrPfUoPx776i-33">
          <mxGeometry relative="1" as="geometry">
            <mxPoint x="358.61780681069513" y="195.27035819259902" as="sourcePoint" />
            <mxPoint x="223" y="357" as="targetPoint" />
          </mxGeometry>
        </mxCell>
        <mxCell id="px1vQeHrWrPfUoPx776i-57" value="Serienummer" style="ellipse;whiteSpace=wrap;html=1;align=center;fontStyle=4;" vertex="1" parent="1">
          <mxGeometry x="256" y="154" width="100" height="40" as="geometry" />
        </mxCell>
        <mxCell id="px1vQeHrWrPfUoPx776i-60" value="HAR_" style="shape=rhombus;perimeter=rhombusPerimeter;whiteSpace=wrap;html=1;align=center;" vertex="1" parent="1">
          <mxGeometry x="246" y="365" width="120" height="60" as="geometry" />
        </mxCell>
        <mxCell id="px1vQeHrWrPfUoPx776i-63" value="" style="endArrow=none;html=1;rounded=0;" edge="1" parent="1" source="px1vQeHrWrPfUoPx776i-33" target="px1vQeHrWrPfUoPx776i-60">
          <mxGeometry relative="1" as="geometry">
            <mxPoint x="431" y="361" as="sourcePoint" />
            <mxPoint x="591" y="361" as="targetPoint" />
          </mxGeometry>
        </mxCell>
        <mxCell id="px1vQeHrWrPfUoPx776i-64" value="N" style="resizable=0;html=1;whiteSpace=wrap;align=right;verticalAlign=bottom;" connectable="0" vertex="1" parent="px1vQeHrWrPfUoPx776i-63">
          <mxGeometry x="1" relative="1" as="geometry" />
        </mxCell>
        <mxCell id="px1vQeHrWrPfUoPx776i-68" value="" style="endArrow=none;html=1;rounded=0;" edge="1" parent="1" source="px1vQeHrWrPfUoPx776i-26" target="px1vQeHrWrPfUoPx776i-60">
          <mxGeometry relative="1" as="geometry">
            <mxPoint x="431" y="382" as="sourcePoint" />
            <mxPoint x="591" y="382" as="targetPoint" />
          </mxGeometry>
        </mxCell>
        <mxCell id="px1vQeHrWrPfUoPx776i-69" value="1" style="resizable=0;html=1;whiteSpace=wrap;align=right;verticalAlign=bottom;" connectable="0" vertex="1" parent="px1vQeHrWrPfUoPx776i-68">
          <mxGeometry x="1" relative="1" as="geometry" />
        </mxCell>
        <mxCell id="px1vQeHrWrPfUoPx776i-70" value="" style="shape=link;html=1;rounded=0;" edge="1" parent="1" source="px1vQeHrWrPfUoPx776i-60" target="px1vQeHrWrPfUoPx776i-16">
          <mxGeometry relative="1" as="geometry">
            <mxPoint x="431" y="382" as="sourcePoint" />
            <mxPoint x="591" y="382" as="targetPoint" />
          </mxGeometry>
        </mxCell>
        <mxCell id="px1vQeHrWrPfUoPx776i-71" value="M" style="resizable=0;html=1;whiteSpace=wrap;align=right;verticalAlign=bottom;" connectable="0" vertex="1" parent="px1vQeHrWrPfUoPx776i-70">
          <mxGeometry x="1" relative="1" as="geometry">
            <mxPoint x="-33" y="-1" as="offset" />
          </mxGeometry>
        </mxCell>
      </root>
    </mxGraphModel>
  </diagram>
</mxfile>
